# xmcd CD database file
#
# Track frame offsets:
#	150
#	11661
#	27460
#	42230
#	55184
#	66876
#	80794
#	99757
#	110233
#	122749
#	136726
#	148164
#	162549
#	175089
#
# Disc length: 2525 seconds
#
# Revision: 0
# Processed by: cddbd v1.5.2PL0 Copyright (c) Steve Scherf et al.
# Submitted via: CDex 1.70beta2
#
DISCID=c509db0e
DTITLE=Waylon Thibodeaux - Papa Thibodeaux
DYEAR=2006
DGENRE=Blues
TTITLE0=High Step It
TTITLE1=We Are Cajuns
TTITLE2=Vouve de La Coulee
TTITLE3=There She Goes
TTITLE4=Port Arthur Blues
TTITLE5=Future De An Musician
TTITLE6=Papa Thibodeaux
TTITLE7=Honey Let Me Have It Again
TTITLE8=Teala's Waltz
TTITLE9=Walkout Backwards
TTITLE10=En Bas Dans La Campagne
TTITLE11=Un Momento Alla
TTITLE12=Be For Sure
TTITLE13=Laissez Les Bon Temps Rouler
EXTD=YEAR: 2006
EXTT0=
EXTT1=
EXTT2=
EXTT3=
EXTT4=
EXTT5=
EXTT6=
EXTT7=
EXTT8=
EXTT9=
EXTT10=
EXTT11=
EXTT12=
EXTT13=
PLAYORDER=
